<svg xmlns="http://www.w3.org/2000/svg" width="200" height="200" viewBox="0 0 200 200">
  <defs>
    <linearGradient id="gradientBg" x1="0%" y1="0%" x2="100%" y2="100%">
      <stop offset="0%" stop-color="#2c3e50" />
      <stop offset="100%" stop-color="#1a252f" />
    </linearGradient>
  </defs>
  <circle cx="100" cy="100" r="95" fill="url(#gradientBg)" stroke-width="0" />
  <g fill="#ffffff">
    <!-- Scissors icon -->
    <path d="M120,65 C115,55 118,45 125,40 C130,36 137,37 140,42 C143,47 141,53 136,58 L155,75 L120,65 Z" />
    <path d="M120,135 C115,145 118,155 125,160 C130,164 137,163 140,158 C143,153 141,147 136,142 L155,125 L120,135 Z" />
    <!-- Letter B -->
    <path d="M60,55 L85,55 C90,55 95,57 98,60 C101,63 103,68 103,73 C103,78 101,82 98,85 C95,88 90,90 85,90 L60,90 L60,55 Z M60,90 L80,90 C85,90 90,92 93,95 C96,98 98,103 98,108 C98,113 96,117 93,120 C90,123 85,125 80,125 L60,125 L60,90 Z M45,40 L45,140 L85,140 C93,140 100,137 105,131 C110,125 113,118 113,110 C113,104 110,98 106,94 C110,90 113,83 113,75 C113,67 110,59 105,53 C100,47 93,40 85,40 L45,40 Z" />
    <!-- X -->
    <path d="M125,95 L150,40 L170,40 L135,100 L170,160 L150,160 L125,105 L100,160 L80,160 L115,100 L80,40 L100,40 L125,95 Z" />
  </g>
</svg>
