<?xml version="1.0" encoding="UTF-8" standalone="no"?>
<svg width="1024" height="1024" viewBox="0 0 1024 1024" fill="none" xmlns="http://www.w3.org/2000/svg">
  <rect width="1024" height="1024" fill="#2c3e50"/>
  <path d="M312 392C312 339.6 354.6 297 407 297H617C669.4 297 712 339.6 712 392V632C712 684.4 669.4 727 617 727H407C354.6 727 312 684.4 312 632V392Z" fill="#e74c3c"/>
  <path d="M382 372C382 357.6 393.6 346 408 346H616C630.4 346 642 357.6 642 372V652C642 666.4 630.4 678 616 678H408C393.6 678 382 666.4 382 652V372Z" fill="#2c3e50"/>
  <rect x="432" y="428" width="160" height="40" rx="20" fill="#e74c3c"/>
  <rect x="432" y="508" width="160" height="40" rx="20" fill="#e74c3c"/>
  <rect x="432" y="588" width="160" height="40" rx="20" fill="#e74c3c"/>
</svg>